<svg width="60" height="60" viewBox="0 0 60 60" fill="none" xmlns="http://www.w3.org/2000/svg">
<path d="M59.4727 56.9531L44.8828 42.3633C46.8359 40.0977 48.3691 37.5391 49.4824 34.6875C50.5957 31.8359 51.1523 28.8086 51.1523 25.6055C51.1523 22.0508 50.4883 18.7305 49.1602 15.6445C47.832 12.5195 46.0059 9.80469 43.6816 7.5C41.3574 5.19531 38.6328 3.35938 35.5078 1.99219C32.4219 0.664062 29.1211 0 25.6055 0C22.0508 0 18.7305 0.664062 15.6445 1.99219C12.5195 3.35938 9.80469 5.19531 7.5 7.5C5.19531 9.80469 3.35938 12.5195 1.99219 15.6445C0.664063 18.7305 0 22.0508 0 25.6055C0 29.1211 0.664063 32.4219 1.99219 35.5078C3.35938 38.6328 5.19531 41.3477 7.5 43.6523C9.80469 45.957 12.5195 47.793 15.6445 49.1602C18.7305 50.4883 22.0508 51.1523 25.6055 51.1523C28.8086 51.1523 31.8359 50.5957 34.6875 49.4824C37.5391 48.3691 40.0977 46.8359 42.3633 44.8828L56.9531 59.4727C57.1094 59.6289 57.3047 59.7559 57.5391 59.8535C57.7734 59.9512 57.9883 60 58.1836 60C58.418 60 58.6523 59.9609 58.8867 59.8828C59.1211 59.8047 59.3164 59.668 59.4727 59.4727C59.8242 59.1211 60 58.7012 60 58.2129C60 57.7246 59.8242 57.3047 59.4727 56.9531ZM3.57422 25.6055C3.57422 22.5586 4.16016 19.707 5.33203 17.0508C6.46484 14.3555 8.02734 12.0117 10.0195 10.0195C12.0117 8.02734 14.3555 6.46484 17.0508 5.33203C19.707 4.16016 22.5586 3.57422 25.6055 3.57422C28.6133 3.57422 31.4648 4.16016 34.1602 5.33203C36.8164 6.46484 39.1406 8.02734 41.1328 10.0195C43.125 12.0117 44.6875 14.3555 45.8203 17.0508C46.9922 19.707 47.5781 22.5586 47.5781 25.6055C47.5781 28.6133 46.9922 31.4648 45.8203 34.1602C44.6875 36.8164 43.125 39.1406 41.1328 41.1328C39.1406 43.125 36.8164 44.707 34.1602 45.8789C31.4648 47.0117 28.6133 47.5781 25.6055 47.5781C22.5586 47.5781 19.707 47.0117 17.0508 45.8789C14.3555 44.707 12.0117 43.125 10.0195 41.1328C8.02734 39.1406 6.46484 36.8164 5.33203 34.1602C4.16016 31.4648 3.57422 28.6133 3.57422 25.6055Z" fill="white"/>
</svg>
