<svg width="8" height="36" viewBox="0 0 8 36" fill="none" xmlns="http://www.w3.org/2000/svg">
<g clip-path="url(#clip0_10_980)">
<path d="M3.54424 20.2074L0.123125 16.7863C0.0410417 16.7042 0 16.6046 0 16.4873C0 16.37 0.0410417 16.2704 0.123125 16.1883L0.527679 15.7925C0.609762 15.7104 0.707969 15.6694 0.822299 15.6694C0.936629 15.6694 1.03777 15.7104 1.12571 15.7925L3.84326 18.5013L6.5608 15.7925C6.64875 15.7104 6.74989 15.6694 6.86422 15.6694C6.97855 15.6694 7.07676 15.7104 7.15884 15.7925L7.56339 16.1883C7.64548 16.2704 7.68652 16.37 7.68652 16.4873C7.68652 16.6046 7.64548 16.7042 7.56339 16.7863L4.14228 20.2074C4.06019 20.2895 3.96052 20.3306 3.84326 20.3306C3.726 20.3306 3.62632 20.2895 3.54424 20.2074Z" fill="#1F1E17"/>
</g>
<defs>
<clipPath id="clip0_10_980">
<rect width="7.88" height="36" fill="white" transform="matrix(1 0 0 -1 0 36)"/>
</clipPath>
</defs>
</svg>
