<svg width="7" height="11" viewBox="0 0 7 11" fill="none" xmlns="http://www.w3.org/2000/svg">
<path d="M6.49428 5.92792L1.5984 10.8238C1.48093 10.9413 1.33829 11 1.17048 11C1.00267 11 0.860031 10.9413 0.742563 10.8238L0.176201 10.2449C0.0587338 10.1274 0 9.98684 0 9.82323C0 9.65961 0.0587338 9.51487 0.176201 9.38902L4.05263 5.5L0.176201 1.61098C0.0587338 1.48513 0 1.34039 0 1.17677C0 1.01316 0.0587338 0.872616 0.176201 0.755149L0.742563 0.176201C0.860031 0.0587338 1.00267 0 1.17048 0C1.33829 0 1.48093 0.0587338 1.5984 0.176201L6.49428 5.07208C6.61175 5.18955 6.67048 5.33219 6.67048 5.5C6.67048 5.66781 6.61175 5.81045 6.49428 5.92792Z" fill="#878680"/>
</svg>
