<svg width="15" height="20" viewBox="0 0 15 20" fill="none" xmlns="http://www.w3.org/2000/svg">
<g clip-path="url(#clip0_10_869)">
<path d="M10.5692 8.37445C10.5692 8.93324 10.4295 9.46239 10.1502 9.96191C9.87923 10.453 9.50459 10.8826 9.02624 11.2509C8.54788 11.6192 7.98698 11.9092 7.34353 12.1209C6.70008 12.3325 6.0143 12.4383 5.28619 12.4383C4.76974 12.4383 4.27233 12.3833 3.79398 12.2732C3.31563 12.1632 2.86902 12.0066 2.45417 11.8034C2.18324 11.9642 1.85728 12.1103 1.47629 12.2415C1.0953 12.3727 0.671983 12.4383 0.206329 12.4383C0.163997 12.4383 0.125898 12.4278 0.0920322 12.4066C0.0581664 12.3854 0.0327671 12.3537 0.0158342 12.3113C-0.00109863 12.2775 -0.00533185 12.2394 0.00313458 12.197C0.011601 12.1547 0.0285339 12.1209 0.0539332 12.0955C0.0623996 12.0955 0.17458 11.96 0.390474 11.6891C0.606368 11.4181 0.79898 11.0922 0.968308 10.7112C0.663517 10.381 0.426456 10.0169 0.257128 9.61902C0.0877989 9.2211 0.00313458 8.80624 0.00313458 8.37445C0.00313458 7.81567 0.142831 7.28652 0.422223 6.787C0.693149 6.29594 1.06779 5.86627 1.54614 5.49798C2.0245 5.12969 2.5854 4.83972 3.22885 4.62805C3.8723 4.41639 4.55808 4.31056 5.28619 4.31056C6.0143 4.31056 6.70008 4.41639 7.34353 4.62805C7.98698 4.83972 8.54788 5.12969 9.02624 5.49798C9.50459 5.86627 9.87923 6.29594 10.1502 6.787C10.4295 7.28652 10.5692 7.81567 10.5692 8.37445ZM13.668 13.9623C13.8373 14.3433 14.0299 14.6692 14.2458 14.9402C14.4617 15.2111 14.5739 15.3466 14.5823 15.3466C14.6077 15.3804 14.6247 15.4164 14.6331 15.4545C14.6416 15.4926 14.6374 15.5286 14.6204 15.5625C14.6035 15.6048 14.5781 15.6365 14.5442 15.6577C14.5104 15.6789 14.4723 15.6895 14.4299 15.6895C13.9643 15.6895 13.541 15.6238 13.16 15.4926C12.779 15.3614 12.453 15.2153 12.1821 15.0545C11.7672 15.2577 11.3228 15.4143 10.8486 15.5244C10.3745 15.6344 9.875 15.6895 9.35008 15.6895C8.79976 15.6895 8.27484 15.6302 7.77532 15.5117C7.2758 15.3847 6.81438 15.2111 6.39106 14.991C5.96774 14.7708 5.59521 14.5084 5.27349 14.2036C4.9433 13.8988 4.68084 13.5644 4.48611 13.2003C4.61311 13.2173 4.74434 13.23 4.8798 13.2384C5.01526 13.2469 5.15073 13.2511 5.28619 13.2511C6.12437 13.2511 6.91598 13.1241 7.66102 12.8701C8.3976 12.6161 9.04105 12.2669 9.59137 11.8224C10.1417 11.3779 10.5777 10.8594 10.8994 10.2667C11.2212 9.67405 11.382 9.0433 11.382 8.37445C11.382 8.28979 11.3799 8.20512 11.3757 8.12046C11.3714 8.0358 11.3609 7.95113 11.3439 7.86647C11.8265 8.01886 12.271 8.21782 12.6774 8.46335C13.0753 8.71734 13.4203 9.00732 13.7124 9.33328C14.0045 9.65923 14.231 10.0169 14.3918 10.4064C14.5527 10.7959 14.6331 11.2022 14.6331 11.6256C14.6331 12.0574 14.5485 12.4722 14.3791 12.8701C14.2098 13.2681 13.9728 13.6321 13.668 13.9623Z" fill="#EEC044"/>
</g>
<defs>
<clipPath id="clip0_10_869">
<rect width="14.63" height="20" fill="white" transform="matrix(1 0 0 -1 0 20)"/>
</clipPath>
</defs>
</svg>
