<svg width="270" height="45" viewBox="0 0 270 45" fill="none" xmlns="http://www.w3.org/2000/svg">
<g clip-path="url(#clip0_3_422)">
<path d="M22.5 4.05176C28.5117 4.05176 29.2236 4.07812 31.5879 4.18359C33.7852 4.28027 34.9717 4.64941 35.7627 4.95703C36.8086 5.36133 37.5645 5.85352 38.3467 6.63574C39.1377 7.42676 39.6211 8.17383 40.0254 9.21973C40.333 10.0107 40.7022 11.2061 40.7988 13.3945C40.9043 15.7676 40.9307 16.4795 40.9307 22.4824C40.9307 28.4941 40.9043 29.2061 40.7988 31.5703C40.7022 33.7676 40.333 34.9541 40.0254 35.7451C39.6211 36.791 39.1289 37.5469 38.3467 38.3291C37.5557 39.1201 36.8086 39.6035 35.7627 40.0078C34.9717 40.3154 33.7764 40.6846 31.5879 40.7813C29.2148 40.8867 28.5029 40.9131 22.5 40.9131C16.4883 40.9131 15.7764 40.8867 13.4121 40.7813C11.2148 40.6846 10.0283 40.3154 9.23731 40.0078C8.19141 39.6035 7.43555 39.1113 6.65332 38.3291C5.8623 37.5381 5.37891 36.791 4.97461 35.7451C4.66699 34.9541 4.29785 33.7588 4.20117 31.5703C4.0957 29.1973 4.06934 28.4854 4.06934 22.4824C4.06934 16.4707 4.0957 15.7588 4.20117 13.3945C4.29785 11.1973 4.66699 10.0107 4.97461 9.21973C5.37891 8.17383 5.87109 7.41797 6.65332 6.63574C7.44434 5.84473 8.19141 5.36133 9.23731 4.95703C10.0283 4.64941 11.2236 4.28027 13.4121 4.18359C15.7764 4.07812 16.4883 4.05176 22.5 4.05176ZM22.5 0C16.3916 0 15.627 0.0263672 13.2275 0.131836C10.8369 0.237305 9.19336 0.624023 7.76953 1.17773C6.28418 1.75781 5.02734 2.52246 3.7793 3.7793C2.52246 5.02734 1.75781 6.28418 1.17773 7.76074C0.624023 9.19336 0.237305 10.8281 0.131836 13.2188C0.0263672 15.627 0 16.3916 0 22.5C0 28.6084 0.0263672 29.373 0.131836 31.7725C0.237305 34.1631 0.624023 35.8066 1.17773 37.2305C1.75781 38.7158 2.52246 39.9727 3.7793 41.2207C5.02734 42.4688 6.28418 43.2422 7.76074 43.8135C9.19336 44.3672 10.8281 44.7539 13.2188 44.8594C15.6182 44.9648 16.3828 44.9912 22.4912 44.9912C28.5996 44.9912 29.3643 44.9648 31.7637 44.8594C34.1543 44.7539 35.7979 44.3672 37.2217 43.8135C38.6982 43.2422 39.9551 42.4688 41.2031 41.2207C42.4512 39.9727 43.2246 38.7158 43.7959 37.2393C44.3496 35.8066 44.7363 34.1719 44.8418 31.7813C44.9473 29.3818 44.9736 28.6172 44.9736 22.5088C44.9736 16.4004 44.9473 15.6357 44.8418 13.2363C44.7363 10.8457 44.3496 9.20215 43.7959 7.77832C43.2422 6.28418 42.4775 5.02734 41.2207 3.7793C39.9727 2.53125 38.7158 1.75781 37.2393 1.18652C35.8066 0.632812 34.1719 0.246094 31.7813 0.140625C29.373 0.0263672 28.6084 0 22.5 0Z" fill="white"/>
<path d="M22.5 10.9424C16.1191 10.9424 10.9424 16.1191 10.9424 22.5C10.9424 28.8809 16.1191 34.0576 22.5 34.0576C28.8809 34.0576 34.0576 28.8809 34.0576 22.5C34.0576 16.1191 28.8809 10.9424 22.5 10.9424ZM22.5 29.9971C18.3604 29.9971 15.0029 26.6396 15.0029 22.5C15.0029 18.3604 18.3604 15.0029 22.5 15.0029C26.6396 15.0029 29.9971 18.3604 29.9971 22.5C29.9971 26.6396 26.6396 29.9971 22.5 29.9971Z" fill="white"/>
<path d="M37.2129 10.4854C37.2129 11.9795 36 13.1836 34.5146 13.1836C33.0205 13.1836 31.8164 11.9707 31.8164 10.4854C31.8164 8.99121 33.0293 7.78711 34.5146 7.78711C36 7.78711 37.2129 9 37.2129 10.4854Z" fill="white"/>
</g>
<g clip-path="url(#clip1_3_422)">
<path d="M120 22.5C120 10.0736 109.926 0 97.5 0C85.0736 0 75 10.0736 75 22.5C75 33.7302 83.2279 43.0387 93.9844 44.7267V29.0039H88.2715V22.5H93.9844V17.543C93.9844 11.9039 97.3436 8.78906 102.483 8.78906C104.944 8.78906 107.52 9.22852 107.52 9.22852V14.7656H104.682C101.888 14.7656 101.016 16.5001 101.016 18.2812V22.5H107.256L106.258 29.0039H101.016V44.7267C111.772 43.0387 120 33.7302 120 22.5Z" fill="white"/>
<path d="M106.258 29.0039L107.256 22.5H101.016V18.2812C101.016 16.5019 101.888 14.7656 104.682 14.7656H107.52V9.22852C107.52 9.22852 104.945 8.78906 102.483 8.78906C97.3436 8.78906 93.9844 11.9039 93.9844 17.543V22.5H88.2715V29.0039H93.9844V44.7267C96.314 45.0911 98.686 45.0911 101.016 44.7267V29.0039H106.258Z" fill="#1877F2"/>
</g>
<g clip-path="url(#clip2_3_422)">
<path d="M191.678 0H153.322C152.441 0 151.596 0.349983 150.973 0.972955C150.35 1.59593 150 2.44086 150 3.32188V41.6781C150 42.5591 150.35 43.4041 150.973 44.0271C151.596 44.65 152.441 45 153.322 45H191.678C192.559 45 193.404 44.65 194.027 44.0271C194.65 43.4041 195 42.5591 195 41.6781V3.32188C195 2.44086 194.65 1.59593 194.027 0.972955C193.404 0.349983 192.559 0 191.678 0ZM163.412 38.3344H156.647V16.8438H163.412V38.3344ZM160.025 13.8656C159.258 13.8613 158.509 13.6297 157.873 13.2002C157.237 12.7706 156.742 12.1622 156.452 11.4519C156.161 10.7416 156.087 9.96111 156.24 9.20898C156.393 8.45685 156.765 7.76677 157.309 7.22584C157.853 6.68491 158.546 6.31738 159.299 6.16961C160.052 6.02185 160.832 6.10049 161.541 6.3956C162.249 6.69071 162.854 7.18906 163.28 7.82777C163.705 8.46648 163.932 9.21692 163.931 9.98438C163.938 10.4982 163.842 11.0082 163.648 11.484C163.454 11.9598 163.166 12.3917 162.802 12.7539C162.437 13.1161 162.003 13.4012 161.526 13.5922C161.049 13.7832 160.539 13.8762 160.025 13.8656ZM188.35 38.3531H181.588V26.6125C181.588 23.15 180.116 22.0813 178.216 22.0813C176.209 22.0813 174.241 23.5938 174.241 26.7V38.3531H167.475V16.8594H173.981V19.8375H174.069C174.722 18.5156 177.009 16.2563 180.5 16.2563C184.275 16.2563 188.353 18.4969 188.353 25.0594L188.35 38.3531Z" fill="white"/>
</g>
<path fill-rule="evenodd" clip-rule="evenodd" d="M254.898 43.125L244.493 28.2939L231.467 43.125H225.956L242.048 24.8083L225.956 1.875H240.104L249.911 15.8532L262.199 1.875H267.709L252.364 19.3434L269.046 43.125H254.898ZM261.035 38.9438H257.325L233.846 6.05625H237.557L246.96 19.2247L248.586 21.5097L261.035 38.9438Z" fill="white"/>
<defs>
<clipPath id="clip0_3_422">
<rect width="45" height="45" fill="white"/>
</clipPath>
<clipPath id="clip1_3_422">
<rect width="45" height="45" fill="white" transform="translate(75)"/>
</clipPath>
<clipPath id="clip2_3_422">
<rect width="45" height="45" fill="white" transform="translate(150)"/>
</clipPath>
</defs>
</svg>
